<svg width="24.000000" height="19.000000" viewBox="0 0 24 19" fill="none" xmlns="http://www.w3.org/2000/svg" xmlns:xlink="http://www.w3.org/1999/xlink">
	<desc>
			Created with Pixso.
	</desc>
	<defs/>
	<path id="Path" d="M24 1.55C23.11 1.94 22.16 2.21 21.17 2.33C22.18 1.72 22.97 0.75 23.33 -0.4C22.38 0.17 21.33 0.58 20.2 0.8C19.31 -0.16 18.03 -0.76 16.61 -0.76C13.43 -0.76 11.1 2.21 11.81 5.29C7.72 5.08 4.1 3.12 1.67 0.14C0.38 2.36 1 5.25 3.19 6.72C2.38 6.69 1.62 6.47 0.96 6.1C0.91 8.38 2.54 10.52 4.91 10.99C4.22 11.18 3.46 11.22 2.68 11.08C3.31 13.03 5.13 14.46 7.29 14.5C5.21 16.12 2.61 16.84 0 16.54C2.17 17.93 4.76 18.75 7.54 18.75C16.68 18.75 21.85 11.03 21.54 4.1C22.5 3.41 23.34 2.54 24 1.55Z" fill="#837D88" fill-opacity="1.000000" fill-rule="nonzero"/>
</svg>
